<svg width="810" height="668" viewBox="0 0 810 668" fill="none" xmlns="http://www.w3.org/2000/svg">
<g id="SA-4">
<g id="Block-4">
<g id="Vector">
<path d="M0.019989 7.56999L200.02 0.519989L198.68 586.84L40.14 593.14" fill="#39B54A"/>
<path d="M0.019989 7.56999L200.02 0.519989L198.68 586.84L40.14 593.14" stroke="black" stroke-miterlimit="10"/>
</g>
</g>
</g>
<g id="SA-3">
<g id="Block-3">
<g id="Vector_2">
<path d="M436.02 629.21L225.35 667.18L237.35 51.18L390.68 72.28" fill="#39B54A"/>
<path d="M436.02 629.21L225.35 667.18L237.35 51.18L390.68 72.28" stroke="black" stroke-miterlimit="10"/>
</g>
</g>
</g>
<g id="SA-2">
<g id="Block-2">
<path id="Vector_3" d="M420.93 55.35L587.6 8.67999C587.6 8.67999 676.93 527.35 672.93 528.68C668.93 530.01 451.6 534.01 451.6 534.01L420.93 55.34V55.35Z" fill="#39B54A" stroke="black" stroke-miterlimit="10"/>
</g>
</g>
<g id="SA-1">
<g id="Block-1">
<path id="Vector_4" d="M616.58 51.18L688.38 433.19L808.58 425.75L797.92 44.52L616.58 51.18Z" fill="#39B54A" stroke="black" stroke-miterlimit="10"/>
</g>
</g>
</svg>
