<svg width="665" height="662" viewBox="0 0 665 662" fill="none" xmlns="http://www.w3.org/2000/svg">
<g id="SA-28">
<g id="Block-28">
<g id="Vector">
<path d="M57.4 99.95L187.91 67.93L134.64 507.37L0.0200195 511.58" fill="#39B54A"/>
<path d="M57.4 99.95L187.91 67.93L134.64 507.37L0.0200195 511.58" stroke="black" stroke-miterlimit="10"/>
</g>
</g>
</g>
<g id="SA-27">
<g id="Block-27">
<g id="Vector_2">
<path d="M149.73 605.11L318.94 615.5L318.74 31.93L227.4 1.46997" fill="#39B54A"/>
<path d="M149.73 605.11L318.94 615.5L318.74 31.93L227.4 1.46997" stroke="black" stroke-miterlimit="10"/>
</g>
</g>
</g>
<g id="SA-26">
<g id="Block-26">
<path id="Vector_3" d="M355.91 73.26L478.74 67.93C478.74 67.93 545.05 639.33 541.05 641.11C537.05 642.89 360.75 661.26 360.75 661.26L355.92 73.26H355.91Z" fill="#39B54A" stroke="black" stroke-miterlimit="10"/>
</g>
</g>
<g id="SA-25">
<g id="Block-25">
<path id="Vector_4" d="M560.56 485.26L508.07 52.09L657.64 52.44L664.07 485.26H560.56Z" fill="#39B54A" stroke="black" stroke-miterlimit="10"/>
</g>
</g>
</svg>
