<svg width="691" height="736" viewBox="0 0 691 736" fill="none" xmlns="http://www.w3.org/2000/svg">
<g id="SA-16">
<g id="Block-16">
<g id="Vector">
<path d="M167.78 734.77L354.45 716.1L327.63 17.44L204.91 38.49" fill="#39B54A"/>
<path d="M167.78 734.77L354.45 716.1L327.63 17.44L204.91 38.49" stroke="black" stroke-miterlimit="10"/>
</g>
</g>
</g>
<g id="SA-15">
<g id="Block-15">
<g id="Vector_2">
<path d="M177.81 131.97L32.87 104.02L1.52002 652.64L120.65 677.25" fill="#39B54A"/>
<path d="M177.81 131.97L32.87 104.02L1.52002 652.64L120.65 677.25" stroke="black" stroke-miterlimit="10"/>
</g>
</g>
</g>
<g id="SA-14">
<g id="Block-14">
<path id="Vector_3" d="M397.48 620.1L515.79 589.43C515.79 589.43 485.48 70.87 481.48 69.43C477.48 67.99 354.45 56.02 354.45 56.02L397.48 620.09V620.1Z" fill="#39B54A" stroke="black" stroke-miterlimit="10"/>
</g>
</g>
<g id="SA-13">
<g id="Block-13">
<path id="Vector_4" d="M515.79 20.29L540.9 308.27L686.74 308.69L689.65 0.559998L515.79 20.29Z" fill="#39B54A" stroke="black" stroke-miterlimit="10"/>
</g>
</g>
</svg>
