<svg width="625" height="576" viewBox="0 0 625 576" fill="none" xmlns="http://www.w3.org/2000/svg">
<g id="SA-32">
<g id="Block-32">
<g id="Vector">
<path d="M145.31 58.53L19.64 54.12L0.519989 569.25L123.44 571.16" fill="#39B54A"/>
<path d="M145.31 58.53L19.64 54.12L0.519989 569.25L123.44 571.16" stroke="black" stroke-miterlimit="10"/>
</g>
</g>
</g>
<g id="SA-31">
<g id="Block-31">
<g id="Vector_2">
<path d="M317.66 14.53L486.78 1.53998L432.12 575.11H328.78" fill="#39B54A"/>
<path d="M317.66 14.53L486.78 1.53998L432.12 575.11H328.78" stroke="black" stroke-miterlimit="10"/>
</g>
</g>
</g>
<g id="SA-30">
<g id="Block-30">
<path id="Vector_3" d="M284.33 49.2L191 31.87C191 31.87 151.54 507.61 155.38 509.09C159.22 510.57 298.09 498.97 298.09 498.97L284.34 49.21L284.33 49.2Z" fill="#39B54A" stroke="black" stroke-miterlimit="10"/>
</g>
</g>
<g id="SA-29">
<g id="Block-29">
<path id="Vector_4" d="M624.05 442.22L616.9 133.2L502.68 130.65L486.78 430.7L624.05 442.22Z" fill="#39B54A" stroke="black" stroke-miterlimit="10"/>
</g>
</g>
</svg>
