<svg width="779" height="633" viewBox="0 0 779 633" fill="none" xmlns="http://www.w3.org/2000/svg">
<g id="SA-24">
<g id="Block-24">
<g id="Vector">
<path d="M624.46 577.95L777.58 583.57L776.01 151.9L660.04 147.08" fill="#39B54A"/>
<path d="M624.46 577.95L777.58 583.57L776.01 151.9L660.04 147.08" stroke="black" stroke-miterlimit="10"/>
</g>
</g>
</g>
<g id="SA-23">
<g id="Block-23">
<g id="Vector_2">
<path d="M378.5 604.26L603.68 618.52L630.77 110.31L480.76 89.93" fill="#39B54A"/>
<path d="M378.5 604.26L603.68 618.52L630.77 110.31L480.76 89.93" stroke="black" stroke-miterlimit="10"/>
</g>
</g>
</g>
<g id="SA-22">
<g id="Block-22">
<path id="Vector_3" d="M304.63 631.87L152.85 628.91C152.85 628.91 234.99 2.33999 239.3 1.50999C243.6 0.679993 456.39 45.22 456.39 45.22L304.63 631.87Z" fill="#39B54A" stroke="black" stroke-miterlimit="10"/>
</g>
</g>
<g id="SA-21">
<g id="Block-21">
<path id="Vector_4" d="M182.47 116.6L132.19 543.85L12 534.86L0.52002 89.93L182.47 116.6Z" fill="#39B54A" stroke="black" stroke-miterlimit="10"/>
</g>
</g>
</svg>
