<svg width="901" height="786" viewBox="0 0 901 786" fill="none" xmlns="http://www.w3.org/2000/svg">
<g id="SA-36">
<g id="Block-36">
<g id="Vector">
<path d="M618.14 548.33L900.07 527.84L831.83 149.58L650.78 131.14" fill="#39B54A"/>
<path d="M618.14 548.33L900.07 527.84L831.83 149.58L650.78 131.14" stroke="black" stroke-miterlimit="10"/>
</g>
</g>
</g>
<g id="SA-35">
<g id="Block-35">
<g id="Vector_2">
<path d="M419.6 0.48999L623.47 47.13L588.55 603.13L469.97 611.82" fill="#39B54A"/>
<path d="M419.6 0.48999L623.47 47.13L588.55 603.13L469.97 611.82" stroke="black" stroke-miterlimit="10"/>
</g>
</g>
</g>
<g id="SA-34">
<g id="Block-34">
<path id="Vector_3" d="M256.91 784.51L457.62 782.31C457.62 782.31 404.67 90.03 400.39 88.76C396.12 87.49 180.85 117.99 180.85 117.99L256.9 784.51H256.91Z" fill="#39B54A" stroke="black" stroke-miterlimit="10"/>
</g>
</g>
<g id="SA-33">
<g id="Block-33">
<path id="Vector_4" d="M0.570007 657.24L61.18 206.79L151.3 202.56L203.86 670.78L0.570007 657.24Z" fill="#39B54A" stroke="black" stroke-miterlimit="10"/>
</g>
</g>
</svg>
