<svg width="836" height="659" viewBox="0 0 836 659" fill="none" xmlns="http://www.w3.org/2000/svg">
<g id="SA-8">
<g id="Block-8">
<g id="Vector">
<path d="M835.36 72L635.36 64.95L636.69 651.28L795.23 657.57" fill="#39B54A"/>
<path d="M835.36 72L635.36 64.95L636.69 651.28L795.23 657.57" stroke="black" stroke-miterlimit="10"/>
</g>
</g>
</g>
<g id="SA-7">
<g id="Block-7">
<g id="Vector_2">
<path d="M410.02 524.18L620.69 553.76L609.24 95.7L432.12 92.79" fill="#39B54A"/>
<path d="M410.02 524.18L620.69 553.76L609.24 95.7L432.12 92.79" stroke="black" stroke-miterlimit="10"/>
</g>
</g>
</g>
<g id="SA-6">
<g id="Block-6">
<path id="Vector_3" d="M410.02 1.59003L220.9 32.54C220.9 32.54 154.02 538.55 158.02 540.06C162.02 541.58 379.35 546.13 379.35 546.13L410.02 1.59003Z" fill="#39B54A" stroke="black" stroke-miterlimit="10"/>
</g>
</g>
<g id="SA-5">
<g id="Block-5">
<path id="Vector_4" d="M182.48 87.04L132.2 440.93L12 433.49L0.519989 64.95L182.48 87.04Z" fill="#39B54A" stroke="black" stroke-miterlimit="10"/>
</g>
</g>
</svg>
