<svg width="788" height="747" viewBox="0 0 788 747" fill="none" xmlns="http://www.w3.org/2000/svg">
<g id="SA-12">
<g id="Block-12">
<g id="Vector">
<path d="M578.47 745.98L425.62 716.69L432.41 0.700012L554.93 42.96" fill="#39B54A"/>
<path d="M578.47 745.98L425.62 716.69L432.41 0.700012L554.93 42.96" stroke="black" stroke-miterlimit="10"/>
</g>
</g>
</g>
<g id="SA-11">
<g id="Block-11">
<g id="Vector_2">
<path d="M787.12 144.43L600.7 108.48L610.84 665.11L751.12 647.31" fill="#39B54A"/>
<path d="M787.12 144.43L600.7 108.48L610.84 665.11L751.12 647.31" stroke="black" stroke-miterlimit="10"/>
</g>
</g>
</g>
<g id="SA-10">
<g id="Block-10">
<path id="Vector_3" d="M377.79 592.64L231.09 586.74C231.09 586.74 164.21 105.49 168.21 104.05C172.21 102.61 389.54 98.28 389.54 98.28L377.78 592.64H377.79Z" fill="#39B54A" stroke="black" stroke-miterlimit="10"/>
</g>
</g>
<g id="SA-9">
<g id="Block-9">
<path id="Vector_4" d="M183.44 533.24L152.62 177.12L32.19 177.98L0.549988 545.33L183.44 533.24Z" fill="#39B54A" stroke="black" stroke-miterlimit="10"/>
</g>
</g>
</svg>
