<svg width="753" height="698" viewBox="0 0 753 698" fill="none" xmlns="http://www.w3.org/2000/svg">
<g id="SA-48">
<g id="Block-48">
<g id="Vector">
<path d="M608.6 548.76L751.83 559.43L728.16 118.79L630.49 104.76" fill="#39B54A"/>
<path d="M608.6 548.76L751.83 559.43L728.16 118.79L630.49 104.76" stroke="black" stroke-miterlimit="10"/>
</g>
</g>
</g>
<g id="SA-47">
<g id="Block-47">
<g id="Vector_2">
<path d="M399.95 46.27L601.64 35.49L584.87 601.89L436.85 583.89" fill="#39B54A"/>
<path d="M399.95 46.27L601.64 35.49L584.87 601.89L436.85 583.89" stroke="black" stroke-miterlimit="10"/>
</g>
</g>
</g>
<g id="SA-46">
<g id="Block-46">
<path id="Vector_3" d="M366.24 7.21001L165.6 1.51001C165.6 1.51001 191.28 695.33 195.5 696.77C199.72 698.21 417.55 696.84 417.55 696.84L366.24 7.21001Z" fill="#39B54A" stroke="black" stroke-miterlimit="10"/>
</g>
</g>
<g id="SA-45">
<g id="Block-45">
<path id="Vector_4" d="M2.88 450.41L1.5 105.73L140.61 92.69L146.8 440.17L2.88 450.41Z" fill="#39B54A" stroke="black" stroke-miterlimit="10"/>
</g>
</g>
</svg>
