<svg width="827" height="726" viewBox="0 0 827 726" fill="none" xmlns="http://www.w3.org/2000/svg">
<g id="SA-44">
<g id="Block-44">
<g id="Vector">
<path d="M205.69 668.96L396.19 674.23L389.12 16.09L249.74 0.5" fill="#39B54A"/>
<path d="M205.69 668.96L396.19 674.23L389.12 16.09L249.74 0.5" stroke="black" stroke-miterlimit="10"/>
</g>
</g>
</g>
<g id="SA-43">
<g id="Block-43">
<g id="Vector_2">
<path d="M0.0200195 95L192.41 103.02L148.45 725.44L39.59 721.01" fill="#39B54A"/>
<path d="M0.0200195 95L192.41 103.02L148.45 725.44L39.59 721.01" stroke="black" stroke-miterlimit="10"/>
</g>
</g>
</g>
<g id="SA-42">
<g id="Block-42">
<path id="Vector_3" d="M431.65 596.11L584.68 588.24C584.68 588.24 614.23 63.71 610.81 62.13C607.39 60.55 421.6 55.82 421.6 55.82L431.65 596.11Z" fill="#39B54A" stroke="black" stroke-miterlimit="10"/>
</g>
</g>
<g id="SA-41">
<g id="Block-41">
<path id="Vector_4" d="M825.9 196.22L743.11 661.02L623.89 642.81L646.42 154.34L825.9 196.22Z" fill="#39B54A" stroke="black" stroke-miterlimit="10"/>
</g>
</g>
</svg>
