<svg width="734" height="614" viewBox="0 0 734 614" fill="none" xmlns="http://www.w3.org/2000/svg">
<g id="SA-20">
<g id="Block-20">
<g id="Vector">
<path d="M1 61.17L209.13 62.75L155.86 517.88L54.39 521.17" fill="#39B54A"/>
<path d="M1 61.17L209.13 62.75L155.86 517.88L54.39 521.17" stroke="black" stroke-miterlimit="10"/>
</g>
</g>
</g>
<g id="SA-19">
<g id="Block-19">
<g id="Vector_2">
<path d="M366.46 581.83L197.13 574.06L251.79 0.5H355.13" fill="#39B54A"/>
<path d="M366.46 581.83L197.13 574.06L251.79 0.5H355.13" stroke="black" stroke-miterlimit="10"/>
</g>
</g>
</g>
<g id="SA-18">
<g id="Block-18">
<path id="Vector_3" d="M397.13 82.54L546.47 69.9C546.47 69.9 575.8 558.09 571.8 559.7C567.8 561.31 401.96 612.5 401.96 612.5L397.13 82.54Z" fill="#39B54A" stroke="black" stroke-miterlimit="10"/>
</g>
</g>
<g id="SA-17">
<g id="Block-17">
<path id="Vector_4" d="M598.46 376.5L572.17 33.76L699.41 44.87L733.03 341.2L598.46 376.5Z" fill="#39B54A" stroke="black" stroke-miterlimit="10"/>
</g>
</g>
</svg>
