<svg width="762" height="752" viewBox="0 0 762 752" fill="none" xmlns="http://www.w3.org/2000/svg">
<g id="SA-40">
<g id="Block-40">
<g id="Vector">
<path d="M184.89 723.29L397.11 700.06L351.7 0.590027L212.36 24.65" fill="#39B54A"/>
<path d="M184.89 723.29L397.11 700.06L351.7 0.590027L212.36 24.65" stroke="black" stroke-miterlimit="10"/>
</g>
</g>
</g>
<g id="SA-39">
<g id="Block-39">
<g id="Vector_2">
<path d="M610.82 24.82L760.67 5.27002L736.53 713.13L612.21 699.39" fill="#39B54A"/>
<path d="M610.82 24.82L760.67 5.27002L736.53 713.13L612.21 699.39" stroke="black" stroke-miterlimit="10"/>
</g>
</g>
</g>
<g id="SA-38">
<g id="Block-38">
<path id="Vector_3" d="M593.44 748.9L453.33 751.02C453.33 751.02 380.52 98.65 385 96.46C389.48 94.27 581.72 108.62 581.72 108.62L593.44 748.91V748.9Z" fill="#39B54A" stroke="black" stroke-miterlimit="10"/>
</g>
</g>
<g id="SA-37">
<g id="Block-37">
<path id="Vector_4" d="M184.89 225.76L158.64 608.24L0.549988 591.91L42.23 187.64L184.89 225.76Z" fill="#39B54A" stroke="black" stroke-miterlimit="10"/>
</g>
</g>
</svg>
